<?xml version="1.0" encoding="UTF-8"?>
<svg id="Layer_1" data-name="Layer 1" xmlns="http://www.w3.org/2000/svg" viewBox="0 0 119.41 32.21">
  <path d="M19.28,27.77c-.03.56-.16,1.11-.4,1.64-.24.53-.55,1.02-.93,1.47-.39.41-.84.74-1.38.98-.5.21-1.07.31-1.69.31-1.01,0-1.91-.3-2.71-.89-.77-.59-1.16-1.63-1.16-3.11l-.09-.04c-.24.39-.56.81-.98,1.29-.39.47-.86.92-1.42,1.33-.53.41-1.14.76-1.82,1.02-.65.24-1.38.36-2.18.36-.47,0-.96-.06-1.47-.18-.47-.15-.92-.39-1.33-.71-.39-.36-.71-.8-.98-1.33-.24-.53-.36-1.18-.36-1.95,0-.83.33-1.63.98-2.4.68-.77,1.51-1.47,2.49-2.09.98-.62,1.84-1.16,2.58-1.6.77-.44,1.44-.81,2-1.11.56-.33,1.05-.59,1.47-.8.44-.24.81-.44,1.11-.62v-4.58c0-.06-.06-.19-.18-.4-.09-.24-.27-.47-.53-.71-.24-.24-.58-.44-1.02-.62-.44-.21-1.02-.31-1.73-.31-.47,0-.95.09-1.42.27-.44.15-.84.36-1.2.62-.36.24-.64.49-.84.76-.21.24-.31.44-.31.62v2c0,.41-.22.78-.67,1.11-.41.33-.87.49-1.38.49-.47,0-.89-.16-1.24-.49-.33-.36-.49-.76-.49-1.2,0-.36.09-.68.27-.98.18-.3.4-.56.67-.8.27-.24.55-.44.84-.62.33-.18.61-.34.84-.49.77-.44,1.56-.87,2.35-1.29.8-.41,1.56-.77,2.27-1.07.74-.3,1.41-.53,2-.71.62-.18,1.13-.27,1.51-.27.77,0,1.5.21,2.18.62.68.39,1.17.87,1.47,1.47.12.21.19.58.22,1.11.03.5.04,1.01.04,1.51,0,1.07-.01,2.03-.04,2.89v2.49c0,.8-.01,1.63-.04,2.49v2.75c0,1.33.22,2.22.67,2.67.47.41,1.01.62,1.6.62.68,0,1.18-.13,1.51-.4.33-.3.55-.67.67-1.11h.27ZM11.02,26.88v-6.84c-.53.39-1.2.8-2,1.24-.8.41-1.58.87-2.35,1.38-.74.5-1.39,1.07-1.95,1.69-.53.59-.8,1.27-.8,2.04s.27,1.47.8,2.09c.53.62,1.23.93,2.09.93.77,0,1.45-.09,2.04-.27.59-.18,1.14-.52,1.64-1.02.36-.33.53-.74.53-1.24ZM35.69,11.11l-1.38,2.71h-6.75v11.68c0,1.51.33,2.61.98,3.29.65.68,1.5,1.02,2.53,1.02.86,0,1.57-.13,2.13-.4.56-.3,1.05-.74,1.47-1.33l.27.13c-.18.44-.43.92-.76,1.42-.3.47-.71.92-1.24,1.33-.5.39-1.11.7-1.82.93-.68.21-1.5.31-2.44.31-.62,0-1.23-.09-1.82-.27-.56-.21-1.07-.49-1.51-.84-.44-.39-.81-.8-1.11-1.24-.27-.47-.4-.95-.4-1.42,0-2.78.01-5.42.04-7.91.03-2.52.04-4.75.04-6.71h-3.24v-.49l6.44-6.09h.36v3.87h8.22ZM55.29,25.37c-.12.65-.39,1.39-.8,2.22-.41.8-.98,1.54-1.69,2.22-.71.68-1.57,1.24-2.58,1.69-.98.44-2.07.67-3.29.67-1.51,0-2.89-.28-4.13-.84-1.24-.56-2.31-1.35-3.2-2.35-.86-1.04-1.53-2.24-2-3.6-.47-1.39-.71-2.86-.71-4.4,0-1.24.22-2.47.67-3.69.44-1.24,1.07-2.35,1.87-3.33.83-.98,1.82-1.76,2.98-2.35,1.18-.62,2.49-.93,3.91-.93,1.16,0,2.24.15,3.24.44,1.04.3,1.93.76,2.67,1.38.77.59,1.39,1.35,1.87,2.27s.76,2,.84,3.24h-14.26c0,.24-.01.52-.04.84-.03.3-.04.61-.04.93,0,1.24.18,2.44.53,3.6.36,1.13.87,2.13,1.56,3.02.68.86,1.54,1.54,2.58,2.04,1.04.5,2.24.76,3.6.76,1.48,0,2.77-.37,3.87-1.11,1.13-.77,1.87-1.7,2.22-2.8l.36.09ZM50.54,15.42c0-1.1-.38-2.03-1.16-2.8-.74-.8-1.75-1.2-3.02-1.2-.83,0-1.58.25-2.27.76-.65.47-1.23,1.04-1.73,1.69-.47.65-.84,1.32-1.11,2-.27.65-.43,1.16-.49,1.51h3.38c.53-.03,1.08-.04,1.64-.04.56-.03,1.18-.04,1.87-.04.44,0,.86-.01,1.24-.04.39-.03.73-.1,1.02-.22.21-.24.36-.46.44-.67.12-.21.18-.52.18-.93ZM67.58,32.12h-10.35v-.49c1.36-.09,2.27-.22,2.71-.4.44-.21.67-.55.67-1.02V4.67c0-.24-.03-.41-.09-.53-.03-.12-.15-.25-.36-.4-.27-.15-.67-.37-1.2-.67-.53-.33-.98-.56-1.33-.71v-.27l6.35-2.09h.31v30.43c0,.3.06.52.18.67.15.15.36.25.62.31.27.06.61.1,1.02.13.41,0,.9.03,1.47.09v.49ZM77.27,3.64c0,.68-.24,1.26-.71,1.73-.44.44-1.01.67-1.69.67s-1.21-.24-1.69-.71c-.47-.47-.71-1.04-.71-1.69s.22-1.24.67-1.69c.47-.44,1.05-.67,1.73-.67s1.24.22,1.69.67c.47.44.71,1.01.71,1.69ZM79.76,32.12h-9.55v-.44c.36-.03.71-.06,1.07-.09.36-.06.67-.13.93-.22.3-.12.53-.27.71-.44.21-.18.31-.4.31-.67v-15.24c0-.24-.03-.44-.09-.62-.03-.18-.15-.34-.36-.49-.27-.18-.59-.36-.98-.53-.36-.18-.74-.34-1.16-.49v-.27l6-1.95h.27v19.86c.06.3.18.52.36.67.21.12.44.21.71.27.27.06.55.1.84.13.33,0,.64.03.93.09v.44ZM101.48,25.37c-.12.65-.39,1.39-.8,2.22-.42.8-.98,1.54-1.69,2.22-.71.68-1.57,1.24-2.58,1.69-.98.44-2.07.67-3.29.67-1.51,0-2.89-.28-4.13-.84-1.24-.56-2.31-1.35-3.2-2.35-.86-1.04-1.53-2.24-2-3.6-.47-1.39-.71-2.86-.71-4.4,0-1.24.22-2.47.67-3.69.44-1.24,1.07-2.35,1.87-3.33.83-.98,1.82-1.76,2.98-2.35,1.18-.62,2.49-.93,3.91-.93,1.16,0,2.24.15,3.24.44,1.04.3,1.93.76,2.67,1.38.77.59,1.39,1.35,1.87,2.27s.76,2,.84,3.24h-14.26c0,.24-.01.52-.04.84-.03.3-.04.61-.04.93,0,1.24.18,2.44.53,3.6.36,1.13.87,2.13,1.55,3.02.68.86,1.54,1.54,2.58,2.04,1.04.5,2.24.76,3.6.76,1.48,0,2.77-.37,3.87-1.11,1.13-.77,1.87-1.7,2.22-2.8l.36.09ZM96.72,15.42c0-1.1-.39-2.03-1.16-2.8-.74-.8-1.75-1.2-3.02-1.2-.83,0-1.58.25-2.27.76-.65.47-1.23,1.04-1.73,1.69-.47.65-.84,1.32-1.11,2-.27.65-.43,1.16-.49,1.51h3.38c.53-.03,1.08-.04,1.64-.04.56-.03,1.18-.04,1.87-.04.44,0,.86-.01,1.24-.04.39-.03.73-.1,1.02-.22.21-.24.36-.46.44-.67.12-.21.18-.52.18-.93ZM119.41,13.02c0,.65-.19,1.2-.58,1.64-.39.41-.83.62-1.33.62-.47,0-.86-.07-1.15-.22-.27-.18-.5-.37-.71-.58-.21-.21-.43-.39-.67-.53-.24-.18-.56-.27-.98-.27-.35,0-.71.13-1.07.4-.33.24-.64.55-.93.93-.3.39-.56.83-.8,1.33-.24.47-.44.93-.62,1.38v12.8c.09.27.28.47.58.62.3.15.62.25.98.31.39.06.77.1,1.15.13.42,0,.77.03,1.07.09v.44h-9.95v-.44c.68-.06,1.26-.19,1.73-.4.5-.21.76-.55.76-1.02v-15.02c0-.24-.03-.41-.09-.53-.03-.12-.15-.25-.36-.4-.27-.15-.58-.33-.93-.53-.35-.24-.71-.43-1.07-.58v-.27l5.82-2.27h.27l-.09,6.18h.09c.15-.36.39-.87.71-1.55.32-.68.74-1.36,1.24-2.04.5-.71,1.11-1.32,1.82-1.82.71-.5,1.53-.76,2.44-.76.74,0,1.36.22,1.87.67.53.44.8,1.01.8,1.69Z" style="fill: #a33434; stroke-width: 0px;"/>
</svg>